<svg width="53" height="52" viewBox="0 0 53 52" fill="none" xmlns="http://www.w3.org/2000/svg">
<path d="M34.2498 0.166672C27.249 0.166672 21.204 4.14501 18.1815 9.93167C14.8649 11.6596 12.1594 14.3651 10.4315 17.6817C7.48957 19.2103 5.02342 21.5168 3.30162 24.3501C1.57982 27.1833 0.668367 30.4346 0.666504 33.75C0.666504 43.7475 8.75234 51.8333 18.7498 51.8333C25.7507 51.8333 31.7957 47.855 34.8182 42.0683C38.1348 40.3404 40.8402 37.6349 42.5682 34.3183C45.5101 32.7897 47.9762 30.4832 49.6981 27.6499C51.4199 24.8167 52.3313 21.5654 52.3332 18.25C52.3332 8.2525 44.2473 0.166672 34.2498 0.166672ZM18.7498 46.6667C16.3519 46.6648 14.0017 45.9956 11.9624 44.7341C9.92302 43.4726 8.27494 41.6685 7.20252 39.5237C6.13011 37.3788 5.67568 34.9779 5.89008 32.5895C6.10448 30.2011 6.97925 27.9195 8.4165 26C8.4165 35.9975 16.5023 44.0833 26.4998 44.0833C24.3298 45.7108 21.6432 46.6667 18.7498 46.6667ZM26.4998 38.9167C24.1019 38.9148 21.7517 38.2456 19.7124 36.9841C17.673 35.7226 16.0249 33.9185 14.9525 31.7737C13.8801 29.6288 13.4257 27.2279 13.6401 24.8395C13.8545 22.4512 14.7292 20.1695 16.1665 18.25C16.1665 28.2217 24.2523 36.3075 34.2498 36.3333C32.0798 37.9608 29.3932 38.9167 26.4998 38.9167ZM38.6415 30.3917C37.2723 30.8825 35.7998 31.1667 34.2498 31.1667C27.1198 31.1667 21.3332 25.38 21.3332 18.25C21.3332 16.7 21.6173 15.2275 22.1082 13.8583C23.4773 13.3675 24.9498 13.0833 26.4998 13.0833C33.6298 13.0833 39.4165 18.87 39.4165 26C39.4165 27.55 39.1323 29.0225 38.6415 30.3917ZM44.5832 26C44.5832 16.0283 36.4973 7.94251 26.4998 7.91667C28.9884 6.06097 32.0619 5.16319 35.1581 5.38755C38.2543 5.6119 41.1663 6.94339 43.3614 9.13847C45.5565 11.3336 46.8879 14.2455 47.1123 17.3417C47.3366 20.4379 46.4389 23.5114 44.5832 26Z" fill="white"/>
</svg>
