<svg width="66" height="52" viewBox="0 0 66 52" fill="none" xmlns="http://www.w3.org/2000/svg">
<path d="M43.5219 24.0633L29.6469 14.8133C29.2957 14.5901 28.8926 14.4622 28.477 14.4419C28.0615 14.4216 27.6478 14.5098 27.2766 14.6977C26.9069 14.8972 26.5985 15.1937 26.3846 15.5553C26.1707 15.9169 26.0593 16.3299 26.0625 16.75V35.25C26.0593 35.6701 26.1707 36.0831 26.3846 36.4447C26.5985 36.8063 26.9069 37.1028 27.2766 37.3023C27.6176 37.4731 27.9936 37.5622 28.375 37.5625C28.8256 37.5577 29.266 37.4276 29.6469 37.1867L43.5219 27.9367C43.844 27.7266 44.1085 27.4394 44.2917 27.1012C44.4748 26.7631 44.5707 26.3846 44.5707 26C44.5707 25.6154 44.4748 25.2369 44.2917 24.8987C44.1085 24.5606 43.844 24.2734 43.5219 24.0633ZM30.6875 30.943V21.057L38.0875 26L30.6875 30.943ZM63.7273 9.17656C63.4617 8.11086 62.9415 7.12547 62.2115 6.30485C61.4815 5.48423 60.5634 4.85286 59.5359 4.46484C49.65 0.649215 33.8672 0.678122 33 0.678122C32.1328 0.678122 16.35 0.649215 6.46406 4.46484C5.43656 4.85286 4.51847 5.48423 3.78847 6.30485C3.05847 7.12547 2.53834 8.11086 2.27266 9.17656C1.52109 12.0383 0.625 17.2992 0.625 26C0.625 34.7008 1.52109 39.9617 2.27266 42.8234C2.53834 43.8891 3.05847 44.8745 3.78847 45.6951C4.51847 46.5158 5.43656 47.1471 6.46406 47.5352C15.9453 51.2062 30.8031 51.3219 32.7977 51.3219H33.2023C35.1969 51.3219 50.0547 51.2062 59.5359 47.5352C60.5634 47.1471 61.4815 46.5158 62.2115 45.6951C62.9415 44.8745 63.4617 43.8891 63.7273 42.8234C64.4789 39.9617 65.375 34.7008 65.375 26C65.375 17.2992 64.4789 12.0383 63.7273 9.17656ZM59.2469 41.6672C59.1615 42.0169 58.9936 42.3412 58.7572 42.6127C58.5209 42.8843 58.2229 43.0953 57.8883 43.2281C48.725 46.7547 33.1734 46.6969 33 46.6969C32.8266 46.6969 17.275 46.7547 8.11172 43.2281C7.77709 43.0953 7.47913 42.8843 7.24277 42.6127C7.0064 42.3412 6.83851 42.0169 6.75313 41.6672C6.05938 39.0367 5.25 34.2094 5.25 26C5.25 17.7906 6.05938 12.9633 6.75313 10.3328C6.83851 9.98306 7.0064 9.65884 7.24277 9.38727C7.47913 9.1157 7.77709 8.90469 8.11172 8.77187C17.275 5.24531 32.8266 5.30312 33 5.30312C33.1734 5.30312 48.725 5.24531 57.8883 8.77187C58.2229 8.90469 58.5209 9.1157 58.7572 9.38727C58.9936 9.65884 59.1615 9.98306 59.2469 10.3328C59.9406 12.9633 60.75 17.7906 60.75 26C60.75 34.2094 59.9406 39.0367 59.2469 41.6672Z" fill="white"/>
</svg>
